<svg id="logo_1" data-name="logo 1" xmlns="http://www.w3.org/2000/svg" width="346" height="314.188" viewBox="0 0 346 314.188">
  <defs>
    <style>
      .cls-1 {
        fill: #4e008e;
      }

      .cls-1, .cls-2, .cls-3 {
        fill-rule: evenodd;
      }

      .cls-2 {
        fill: none;
        stroke: #ffe400;
        stroke-width: 8.92px;
      }

      .cls-3, .cls-4 {
        fill: #ffe400;
      }

      .cls-4 {
        font-size: 108px;
        font-family: "Mermaid Swash Caps";
        font-weight: 700;
      }
    </style>
  </defs>
  <path id="hand_1" data-name="hand 1" class="cls-1" d="M251.294,152.635c27.388,0.353,48.226,8.965,74.261,12.22l49.821,1.88c13.492,4.311,12.761,11.953,13.161,14.1,0.243,1.312,8.724-5.131,22.56-9.4,24.229-15.072,70.006-21.171,70.5,6.58-18.2,12.015-54.708,16.057-77.082,23.5-23.056,7.67-39.27,26.478-65.8,29.14-28.808,2.891-59.781-15.666-90.241-8.46-14.643,3.464-37.047,16.512-53.582,30.081-17.269,14.171-24.536,11.215-17.86,3.76,9.365-10.458,40.208-25.943,66.741-40.421l23.5-2.82c19,3.119,55.894,11.316,72.381,9.4,12.534-1.456,28-11.478,41.361-17.86,15.05-7.19,27.184-11.8,28.2-12.221,29.59-12.36,76.778-11.893,62.981-20.68-28.3-10.554-41.534,1.03-64.861,9.4l-21.621,5.64c-2.655,4.092-6.91,8.747-14.1,9.4-21.257.313-47.364-3.447-70.5,6.58,0-.627,6.58-4.074,6.58-4.7,10.477-2.733,26.617-12.255,66.741-7.521,4.081-1.332,6.527-4.611,7.52-9.4-12.169-11.771-32.352-3.523-53.581-7.52-9.128-1.719-23.369-4.314-37.6-7.52-17.293-3.9-34.741-8.131-45.121-5.64-16.685,4-28.622,14.639-42.3,21.62-8.335,4.254-41.838,16.92-47.941,3.76,3.723-1.906,9.715-2.032,15.98-1.88l26.32-7.52c7.938-3.968,17.443-7.311,25.381-11.28,5.223-2.611,8.878-5.849,14.1-8.46Z" transform="translate(-145 -29.813)"/>
  <g id="sun">
    <path id="Forma_1" data-name="Forma 1" class="cls-2" d="M305.783,72.042C294.267,79.821,288,103.5,326.371,115.506c0,0,37.558-2.845,32.027-25.164-2.7-10.872-4.834-15.979-10.664-19.961C341.386,66.046,314.149,66.39,305.783,72.042Z" transform="translate(-145 -29.813)"/>
    <path id="Forma_3" data-name="Forma 3" class="cls-3" d="M366.146,70.8l14.1-12.22s9.165-4.935,7.52,0a11.055,11.055,0,0,1-5.64,6.58A149.025,149.025,0,0,1,366.146,70.8Z" transform="translate(-145 -29.813)"/>
    <path id="Forma_4" data-name="Forma 4" class="cls-3" d="M385.886,93.363s8.93-.235,8.46,3.76-11.985,2.115-16.92.94a48.833,48.833,0,0,1-8.46-2.82Z" transform="translate(-145 -29.813)"/>
    <path id="Forma_5" data-name="Forma 5" class="cls-3" d="M370.846,123.443s7.52,3.76,7.52,7.52-7.05,2.82-20.68-15.04Z" transform="translate(-145 -29.813)"/>
    <path id="Forma_6" data-name="Forma 6" class="cls-3" d="M343.586,140.363s5.4,8.46.94,12.22-7.285-16.92-8.46-24.44Z" transform="translate(-145 -29.813)"/>
    <path id="Forma_7" data-name="Forma 7" class="cls-3" d="M312.566,126.263l-1.88,15.98s-0.235,6.58-5.64,7.52S312.566,122.268,312.566,126.263Z" transform="translate(-145 -29.813)"/>
    <path id="Forma_8" data-name="Forma 8" class="cls-3" d="M294.706,109.343l-8.46,9.4a14.549,14.549,0,0,1-11.28,6.58C267.211,125.793,282.721,113.808,294.706,109.343Z" transform="translate(-145 -29.813)"/>
    <path id="Forma_9" data-name="Forma 9" class="cls-3" d="M289.066,86.783l-15.98,2.82s-8.225,2.115-9.4-2.82S273.086,82.788,289.066,86.783Z" transform="translate(-145 -29.813)"/>
    <path id="Forma_10" data-name="Forma 10" class="cls-3" d="M297.526,64.223l-12.22-5.64s-11.75-4.23-9.4-8.46S280.606,46.833,297.526,64.223Z" transform="translate(-145 -29.813)"/>
    <path id="Forma_11" data-name="Forma 11" class="cls-3" d="M319.693,55.8a33.888,33.888,0,0,0-5.733-10.585c-4.106-5.038-5.615-16.534-.107-15.3S318.714,47.987,319.693,55.8Z" transform="translate(-145 -29.813)"/>
    <path id="Forma_2" data-name="Forma 2" class="cls-3" d="M352.986,39.783s4-8.225,5.64-4.7-8,21.269-10.34,21.62C345.481,57.124,352.986,39.783,352.986,39.783Z" transform="translate(-145 -29.813)"/>
  </g>
  <text id="ampare" class="cls-4" x="-1.16" y="290.637">ampare</text>
</svg>
